<svg xmlns="http://www.w3.org/2000/svg" width="64" height="64" fill="none" id="game"><rect width="48" height="48" x="8" y="8" fill="url(#a)" rx="8"></rect><g filter="url(#b)"><rect width="48" height="48" x="8" y="8" fill="#fff" fill-opacity=".08" rx="8"></rect></g><g filter="url(#c)"><rect width="48" height="48" x="8" y="8" fill="#fff" fill-opacity=".08" rx="8"></rect></g><g filter="url(#d)"><path fill="#fff" d="M46.932 38.718c0-.006-.002-.011-.003-.017L44.885 28.15l-.005-.024a7.511 7.511 0 0 0-7.378-6.157H37.5L26.501 22a7.484 7.484 0 0 0-7.392 6.226L17.072 38.7l-.003.017a4.5 4.5 0 0 0 7.665 3.908l5.091-5.628 4.357-.017 5.083 5.643a4.5 4.5 0 0 0 7.667-3.907ZM29 30.5h-1v1a1 1 0 0 1-2 0v-1h-1a1 1 0 0 1 0-2h1v-1a1 1 0 0 1 2 0v1h1a1 1 0 0 1 0 2Zm5-1a1 1 0 0 1 1-1h4a1 1 0 0 1 0 2h-4a1 1 0 0 1-1-1Zm8.935 12.461a2.504 2.504 0 0 1-2.182-.674l-3.89-4.317.64-.002a7.5 7.5 0 0 0 6.367-3.544l1.094 5.649a2.502 2.502 0 0 1-2.03 2.888Z"></path></g><defs><filter id="b" width="56" height="56" x="4" y="4" color-interpolation-filters="sRGB" filterUnits="userSpaceOnUse"><feFlood flood-opacity="0" result="BackgroundImageFix"></feFlood><feBlend in="SourceGraphic" in2="BackgroundImageFix" result="shape"></feBlend><feColorMatrix in="SourceAlpha" result="hardAlpha" values="0 0 0 0 0 0 0 0 0 0 0 0 0 0 0 0 0 0 127 0"></feColorMatrix><feMorphology in="SourceAlpha" radius="1" result="effect1_innerShadow"></feMorphology><feOffset dx="4" dy="4"></feOffset><feGaussianBlur stdDeviation="4"></feGaussianBlur><feComposite in2="hardAlpha" k2="-1" k3="1" operator="arithmetic"></feComposite><feColorMatrix values="0 0 0 0 1 0 0 0 0 1 0 0 0 0 1 0 0 0 0.32 0"></feColorMatrix><feBlend in2="shape" result="effect1_innerShadow"></feBlend><feGaussianBlur result="effect2_foregroundBlur" stdDeviation="2"></feGaussianBlur></filter><filter id="c" width="56" height="56" x="4" y="4" color-interpolation-filters="sRGB" filterUnits="userSpaceOnUse"><feFlood flood-opacity="0" result="BackgroundImageFix"></feFlood><feBlend in="SourceGraphic" in2="BackgroundImageFix" result="shape"></feBlend><feColorMatrix in="SourceAlpha" result="hardAlpha" values="0 0 0 0 0 0 0 0 0 0 0 0 0 0 0 0 0 0 127 0"></feColorMatrix><feMorphology in="SourceAlpha" radius="1" result="effect1_innerShadow"></feMorphology><feOffset dx="-4" dy="-4"></feOffset><feGaussianBlur stdDeviation="4"></feGaussianBlur><feComposite in2="hardAlpha" k2="-1" k3="1" operator="arithmetic"></feComposite><feColorMatrix values="0 0 0 0 1 0 0 0 0 1 0 0 0 0 1 0 0 0 0.32 0"></feColorMatrix><feBlend in2="shape" result="effect1_innerShadow"></feBlend><feGaussianBlur result="effect2_foregroundBlur" stdDeviation="2"></feGaussianBlur></filter><filter id="d" width="31" height="23.032" x="16.001" y="20.968" color-interpolation-filters="sRGB" filterUnits="userSpaceOnUse"><feFlood flood-opacity="0" result="BackgroundImageFix"></feFlood><feBlend in="SourceGraphic" in2="BackgroundImageFix" result="shape"></feBlend><feColorMatrix in="SourceAlpha" result="hardAlpha" values="0 0 0 0 0 0 0 0 0 0 0 0 0 0 0 0 0 0 127 0"></feColorMatrix><feOffset dx="-1" dy="-1"></feOffset><feGaussianBlur stdDeviation="1"></feGaussianBlur><feComposite in2="hardAlpha" k2="-1" k3="1" operator="arithmetic"></feComposite><feColorMatrix values="0 0 0 0 0 0 0 0 0 0 0 0 0 0 0 0 0 0 0.16 0"></feColorMatrix><feBlend in2="shape" result="effect1_innerShadow"></feBlend></filter><linearGradient id="a" x1="8" x2="56" y1="8" y2="56" gradientUnits="userSpaceOnUse"><stop stop-color="#FF00C7"></stop><stop offset="1" stop-color="red"></stop></linearGradient></defs></svg>