<svg xmlns="http://www.w3.org/2000/svg" viewBox="0 0 24 24" id="computer"><path fill="#303C42" d="M22 1H2C.897 1 0 1.897 0 3v14c0 1.103.897 2 2 2h7.001c-.021.8-.174 2.077-.745 2.677A.981.981 0 0 1 7.5 22a.5.5 0 1 0 0 1h9a.5.5 0 1 0 0-1 .981.981 0 0 1-.756-.323c-.57-.6-.724-1.878-.745-2.677H22c1.103 0 2-.897 2-2V3c0-1.103-.897-2-2-2z"></path><path fill="#8D949C" d="M2 2h20c.551 0 1 .449 1 1v11H1V3c0-.551.449-1 1-1z"></path><linearGradient id="a" x1=".895" x2="23.264" y1="3.003" y2="13.434" gradientUnits="userSpaceOnUse"><stop offset="0" stop-opacity="0"></stop><stop offset="1" stop-opacity=".1"></stop></linearGradient><path fill="url(#a)" d="M2 2h20c.551 0 1 .449 1 1v11H1V3c0-.551.449-1 1-1z"></path><path fill="#F2F2F2" d="M22 18H2c-.551 0-1-.449-1-1v-2h22v2c0 .551-.449 1-1 1zM14.731 22H9.27c.603-.926.72-2.259.735-3h3.992c.015.741.132 2.074.735 3z"></path><circle cx="12" cy="16.5" r="1" fill="#303C42"></circle><linearGradient id="b" x1="11.002" x2="14.866" y1="18.002" y2="21.866" gradientUnits="userSpaceOnUse"><stop offset="0" stop-opacity=".1"></stop><stop offset="1" stop-opacity="0"></stop></linearGradient><path fill="url(#b)" d="M14.731 22c-.603-.926-.72-2.259-.735-3h-3.992l3 3h1.727z"></path><linearGradient id="c" x1="3.647" x2="20.353" y1="-.06" y2="16.647" gradientUnits="userSpaceOnUse"><stop offset="0" stop-opacity="0"></stop><stop offset="1" stop-opacity=".1"></stop></linearGradient><path fill="url(#c)" d="M2 2h20c.551 0 1 .449 1 1v11H1V3c0-.551.449-1 1-1z"></path><path fill="#303C42" d="M9 12a3.5 3.5 0 0 0 2.435-1h1.13A3.5 3.5 0 0 0 15 12c1.93 0 3.5-1.57 3.5-3.5S16.93 5 15 5H9C7.07 5 5.5 6.57 5.5 8.5S7.07 12 9 12z"></path><path fill="#F2F2F2" d="M9 6h6c1.379 0 2.5 1.122 2.5 2.5S16.379 11 15 11a2.47 2.47 0 0 1-1.85-.835.5.5 0 0 0-.372-.165h-1.556a.5.5 0 0 0-.371.165A2.47 2.47 0 0 1 9 11c-1.379 0-2.5-1.122-2.5-2.5S7.621 6 9 6z"></path><path fill="#303C42" d="M8 9h.5v.5a.5.5 0 1 0 1 0V9h.5a.5.5 0 1 0 0-1h-.5v-.5a.5.5 0 1 0-1 0V8H8a.5.5 0 1 0 0 1z"></path><circle cx="15" cy="7.5" r=".5" fill="#303C42"></circle><circle cx="14" cy="8.5" r=".5" fill="#303C42"></circle><circle cx="16" cy="8.5" r=".5" fill="#303C42"></circle><circle cx="15" cy="9.5" r=".5" fill="#303C42"></circle><linearGradient id="d" x1="-.953" x2="24.462" y1="4.6" y2="16.452" gradientUnits="userSpaceOnUse"><stop offset="0" stop-color="#FFF" stop-opacity=".2"></stop><stop offset="1" stop-color="#FFF" stop-opacity="0"></stop></linearGradient><path fill="url(#d)" d="M22 1H2C.897 1 0 1.897 0 3v14c0 1.103.897 2 2 2h7.001c-.021.8-.174 2.077-.745 2.677A.981.981 0 0 1 7.5 22a.5.5 0 1 0 0 1h9a.5.5 0 1 0 0-1 .981.981 0 0 1-.756-.323c-.57-.6-.724-1.878-.745-2.677H22c1.103 0 2-.897 2-2V3c0-1.103-.897-2-2-2z"></path></svg>